nColumns=19
nRows=90
DataType=double
version=3
OpenSimVersion=4.1
endheader
time	ground_force_1_vx	ground_force_1_vy	ground_force_1_vz	ground_force_1_px	ground_force_1_py	ground_force_1_pz	ground_force_1_mx	ground_force_1_my	ground_force_1_mz	ground_force_2_vx	ground_force_2_vy	ground_force_2_vz	ground_force_2_px	ground_force_2_py	ground_force_2_pz	ground_force_2_mx	ground_force_2_my	ground_force_2_mz
0.65	-2.54984	18.4735	-3.62646	1.23719	0	-0.259122	-0	0.621017	-0	0	0	0	-0.00119303	0	-0.000748646	0	0	0
0.66	-9.85126	74.81	-8.29581	1.27557	0	-0.307464	-0	1.46506	-0	0	0	0	-0.00119303	0	-0.000748646	0	0	0
0.67	-18.4493	236.398	-11.904	1.27498	0	-0.319455	-0	2.32179	-0	0	0	0	-0.00119303	0	-0.000748646	0	0	0
0.68	-19.0847	537.098	-10.2587	1.26479	0	-0.319599	-0	3.10137	-0	0	0	0	-0.00119303	0	-0.000748646	0	0	0
0.69	-26.3975	882.275	-5.28812	1.25317	0	-0.317812	-0	3.75327	-0	0	0	0	-0.00119303	0	-0.000748646	0	0	0
0.7	-69.0985	1115.57	-7.063	1.24222	0	-0.317326	-0	4.18555	-0	0	0	0	-0.00119303	0	-0.000748646	0	0	0
0.71	-133.985	1217.27	-19.5924	1.23038	0	-0.318543	-0	4.16513	-0	0	0	0	-0.00119303	0	-0.000748646	0	0	0
0.72	-197.342	1311.78	-32.1296	1.21523	0	-0.319592	-0	3.37202	-0	0	0	0	-0.00119303	0	-0.000748646	0	0	0
0.73	-235.078	1489.36	-34.4986	1.19577	0	-0.319391	-0	1.63276	-0	0	0	0	-0.00119303	0	-0.000748646	0	0	0
0.74	-222.116	1716.46	-29.6612	1.17216	0	-0.319697	0	-0.887191	0	0	0	0	-0.00119303	0	-0.000748646	0	0	0
0.75	-178.835	1918.15	-23.9126	1.14627	0	-0.320747	0	-3.72843	0	0	0	0	-0.00119303	0	-0.000748646	0	0	0
0.76	-127.726	2055.05	-19.2378	1.11983	0	-0.321418	0	-6.3649	0	0	0	0	-0.00119303	0	-0.000748646	0	0	0
0.77	-77.9202	2122.69	-16.1919	1.09454	0	-0.32182	0	-8.43049	0	0	0	0	-0.00119303	0	-0.000748646	0	0	0
0.78	-36.615	2123.52	-13.6043	1.07076	0	-0.322067	0	-9.81716	0	0	0	0	-0.00119303	0	-0.000748646	0	0	0
0.79	-5.13947	2058.98	-9.67511	1.04855	0	-0.322357	0	-10.6167	0	0	0	0	-0.00119303	0	-0.000748646	0	0	0
0.8	18.3689	1937.2	-3.52652	1.02752	0	-0.322916	0	-10.9717	0	0	0	0	-0.00119303	0	-0.000748646	0	0	0
0.81	39.405	1773.05	4.2073	1.00605	0	-0.323702	0	-10.9429	0	0	0	0	-0.00119303	0	-0.000748646	0	0	0
0.82	67.9782	1575.29	11.2131	0.981859	0	-0.324905	0	-10.4746	0	0	0	0	-0.00119303	0	-0.000748646	0	0	0
0.83	107.974	1343.59	15.7568	0.952152	0	-0.326435	0	-9.46501	0	0	0	0	-0.00119303	0	-0.000748646	0	0	0
0.84	154.609	1085.8	16.8701	0.915947	0	-0.327998	0	-7.88072	0	0	0	0	-0.00119303	0	-0.000748646	0	0	0
0.85	182.886	830.499	14.6279	0.879364	0	-0.329278	0	-5.83764	0	0	0	0	-0.00119303	0	-0.000748646	0	0	0
0.86	175.909	604.283	11.5255	0.849472	0	-0.329643	0	-3.59809	0	0	0	0	-0.00119303	0	-0.000748646	0	0	0
0.87	148.142	414.816	9.43386	0.827047	0	-0.328127	0	-1.48977	0	0	0	0	-0.00119303	0	-0.000748646	0	0	0
0.88	115.779	260.859	7.16724	0.806095	0	-0.325641	-0	0.191638	-0	0	0	0	-0.00119303	0	-0.000748646	0	0	0
0.89	81.0562	143.249	4.27419	0.777322	0	-0.324526	-0	1.24602	-0	0	0	0	-0.00119303	0	-0.000748646	0	0	0
0.9	45.6815	65.8088	2.56492	0.733352	0	-0.322078	-0	1.60186	-0	0	0	0	-0.00119303	0	-0.000748646	0	0	0
0.91	19.0907	25.1519	2.35285	0.684267	0	-0.303892	-0	1.32406	-0	0	0	0	-0.00119303	0	-0.000748646	0	0	0
0.92	0	0	0	-0.00119303	0	-0.000748646	0	0	0	0	0	0	-0.00119303	0	-0.000748646	0	0	0
0.93	0	0	0	-0.00119303	0	-0.000748646	0	0	0	0	0	0	-0.00119303	0	-0.000748646	0	0	0
0.94	0	0	0	-0.00119303	0	-0.000748646	0	0	0	0	0	0	-0.00119303	0	-0.000748646	0	0	0
0.95	0	0	0	-0.00119303	0	-0.000748646	0	0	0	0	0	0	-0.00119303	0	-0.000748646	0	0	0
0.96	0	0	0	-0.00119303	0	-0.000748646	0	0	0	0	0	0	-0.00119303	0	-0.000748646	0	0	0
0.97	0	0	0	-0.00119303	0	-0.000748646	0	0	0	0	0	0	-0.00119303	0	-0.000748646	0	0	0
0.98	0	0	0	-0.00119303	0	-0.000748646	0	0	0	0	0	0	-0.00119303	0	-0.000748646	0	0	0
0.99	0	0	0	-0.00119303	0	-0.000748646	0	0	0	0	0	0	-0.00119303	0	-0.000748646	0	0	0
1	0	0	0	-0.00119303	0	-0.000748646	0	0	0	0	0	0	-0.00119303	0	-0.000748646	0	0	0
1.01	0	0	0	-0.00119303	0	-0.000748646	0	0	0	-2.35463	12.8272	-3.0351	1.21891	0	-0.363777	-0	2.24405	-0
1.02	0	0	0	-0.00119303	0	-0.000748646	0	0	0	-8.3431	53.0066	-5.67094	1.25484	0	-0.384455	-0	3.50956	-0
1.03	0	0	0	-0.00119303	0	-0.000748646	0	0	0	-16.225	175.491	-5.84969	1.25392	0	-0.394443	-0	3.84966	-0
1.04	0	0	0	-0.00119303	0	-0.000748646	0	0	0	-22.1579	432.238	1.64536	1.24517	0	-0.393553	-0	3.00427	-0
1.05	0	0	0	-0.00119303	0	-0.000748646	0	0	0	-38.7083	786.01	18.3345	1.23552	0	-0.390964	-0	1.13493	-0
1.06	0	0	0	-0.00119303	0	-0.000748646	0	0	0	-79.1519	1085.44	37.3171	1.22604	0	-0.390781	0	-1.16471	0
1.07	0	0	0	-0.00119303	0	-0.000748646	0	0	0	-130.789	1245.43	51.4358	1.21481	0	-0.393301	0	-3.07832	0
1.08	0	0	0	-0.00119303	0	-0.000748646	0	0	0	-184.825	1370.54	61.9346	1.19853	0	-0.395512	0	-3.86462	0
1.09	0	0	0	-0.00119303	0	-0.000748646	0	0	0	-214.329	1550.54	70.2823	1.17779	0	-0.39519	0	-3.08243	0
1.1	0	0	0	-0.00119303	0	-0.000748646	0	0	0	-196.596	1745.54	72.9803	1.15435	0	-0.394287	0	-0.703655	0
1.11	0	0	0	-0.00119303	0	-0.000748646	0	0	0	-147.021	1889.9	70.0272	1.12788	0	-0.393659	-0	2.88447	-0
1.12	0	0	0	-0.00119303	0	-0.000748646	0	0	0	-84.5299	1967.81	64.8662	1.09955	0	-0.393133	-0	7.01032	-0
1.13	0	0	0	-0.00119303	0	-0.000748646	0	0	0	-21.6148	1987.82	59.3892	1.07098	0	-0.392466	-0	10.9403	-0
1.14	0	0	0	-0.00119303	0	-0.000748646	0	0	0	37.8066	1952.22	52.9357	1.04279	0	-0.391478	-0	14.0848	-0
1.15	0	0	0	-0.00119303	0	-0.000748646	0	0	0	96.3318	1862.42	44.7705	1.01476	0	-0.390116	-0	16.1071	-0
1.16	0	0	0	-0.00119303	0	-0.000748646	0	0	0	154.708	1722.33	35.6695	0.985866	0	-0.38825	-0	16.9304	-0
1.17	0	0	0	-0.00119303	0	-0.000748646	0	0	0	206.79	1535.94	26.2869	0.955717	0	-0.386211	-0	16.676	-0
1.18	0	0	0	-0.00119303	0	-0.000748646	0	0	0	240.88	1312.57	16.5751	0.924245	0	-0.384258	-0	15.5701	-0
1.19	0	0	0	-0.00119303	0	-0.000748646	0	0	0	251.388	1069.24	6.44358	0.892024	0	-0.382851	-0	13.8579	-0
1.2	0	0	0	-0.00119303	0	-0.000748646	0	0	0	239.847	826.971	-2.14807	0.859917	0	-0.381821	-0	11.7596	-0
1.21	0	0	0	-0.00119303	0	-0.000748646	0	0	0	210.569	605.066	-7.14138	0.828978	0	-0.380227	-0	9.47743	-0
1.22	0	0	0	-0.00119303	0	-0.000748646	0	0	0	169.653	415.405	-9.7163	0.801108	0	-0.378636	-0	7.20773	-0
1.23	0	0	0	-0.00119303	0	-0.000748646	0	0	0	124.54	263.104	-11.4615	0.778756	0	-0.377976	-0	5.1213	-0
1.24	0	0	0	-0.00119303	0	-0.000748646	0	0	0	81.0763	148.669	-11.5784	0.762043	0	-0.37683	-0	3.33098	-0
1.25	0	0	0	-0.00119303	0	-0.000748646	0	0	0	44.2932	71.3482	-9.34413	0.748312	0	-0.372618	-0	1.88468	-0
1.26	0	0	0	-0.00119303	0	-0.000748646	0	0	0	18.8025	27.9062	-5.95289	0.752299	0	-0.360591	-0	0.779004	-0
1.27	0	0	0	-0.00119303	0	-0.000748646	0	0	0	0	0	0	-0.00119303	0	-0.000748646	0	0	0
1.28	0	0	0	-0.00119303	0	-0.000748646	0	0	0	0	0	0	-0.00119303	0	-0.000748646	0	0	0
1.29	0	0	0	-0.00119303	0	-0.000748646	0	0	0	0	0	0	-0.00119303	0	-0.000748646	0	0	0
1.3	0	0	0	-0.00119303	0	-0.000748646	0	0	0	0	0	0	-0.00119303	0	-0.000748646	0	0	0
1.31	0	0	0	-0.00119303	0	-0.000748646	0	0	0	0	0	0	-0.00119303	0	-0.000748646	0	0	0
1.32	0	0	0	-0.00119303	0	-0.000748646	0	0	0	0	0	0	-0.00119303	0	-0.000748646	0	0	0
1.33	0	0	0	-0.00119303	0	-0.000748646	0	0	0	0	0	0	-0.00119303	0	-0.000748646	0	0	0
1.34	-6.68253	14.3184	-4.06792	1.19691	0	-0.286921	0	-0.22141	0	0	0	0	-0.00119303	0	-0.000748646	0	0	0
1.35	-26.7832	61.6029	-9.85524	1.30075	0	-0.293236	-0	0.667498	-0	0	0	0	-0.00119303	0	-0.000748646	0	0	0
1.36	-67.6804	204.266	-16.3857	1.33458	0	-0.293657	-0	1.66081	-0	0	0	0	-0.00119303	0	-0.000748646	0	0	0
1.37	-104.301	500.493	-19.2284	1.34005	0	-0.291573	-0	2.62737	-0	0	0	0	-0.00119303	0	-0.000748646	0	0	0
1.38	-105.016	894.41	-16.3873	1.33201	0	-0.289177	-0	3.49725	-0	0	0	0	-0.00119303	0	-0.000748646	0	0	0
1.39	-105.99	1190.55	-15.4045	1.32019	0	-0.287782	-0	4.24901	-0	0	0	0	-0.00119303	0	-0.000748646	0	0	0
1.4	-140.578	1273.14	-25.6565	1.30909	0	-0.287661	-0	4.7935	-0	0	0	0	-0.00119303	0	-0.000748646	0	0	0
1.41	-194.3	1268.14	-43.2489	1.29672	0	-0.287493	-0	4.89078	-0	0	0	0	-0.00119303	0	-0.000748646	0	0	0
1.42	-246.792	1349.88	-55.6101	1.28053	0	-0.285905	-0	4.24896	-0	0	0	0	-0.00119303	0	-0.000748646	0	0	0
1.43	-255.684	1528.18	-58.3067	1.25966	0	-0.284461	-0	2.74175	-0	0	0	0	-0.00119303	0	-0.000748646	0	0	0
1.44	-226.9	1716.38	-55.5424	1.23576	0	-0.284356	-0	0.533275	-0	0	0	0	-0.00119303	0	-0.000748646	0	0	0
1.45	-182.418	1853.51	-50.5544	1.2101	0	-0.284486	0	-1.98876	0	0	0	0	-0.00119303	0	-0.000748646	0	0	0
1.46	-132.627	1928.69	-45.1356	1.18338	0	-0.284421	0	-4.39261	0	0	0	0	-0.00119303	0	-0.000748646	0	0	0
1.47	-81.767	1949.5	-40.3031	1.15569	0	-0.28472	0	-6.36948	0	0	0	0	-0.00119303	0	-0.000748646	0	0	0
1.48	-27.7433	1924.3	-33.961	1.12623	0	-0.285285	0	-7.8002	0	0	0	0	-0.00119303	0	-0.000748646	0	0	0
1.49	34.5332	1860.38	-24.9726	1.09443	0	-0.285889	0	-8.70688	0	0	0	0	-0.00119303	0	-0.000748646	0	0	0
1.5	98.1611	1762.19	-15.6361	1.0615	0	-0.286818	0	-9.15834	0	0	0	0	-0.00119303	0	-0.000748646	0	0	0
1.51	151.556	1628.71	-7.03658	1.02884	0	-0.2879	0	-9.19995	0	0	0	0	-0.00119303	0	-0.000748646	0	0	0
1.52	191.617	1455.99	1.2156	0.995752	0	-0.288825	0	-8.82509	0	0	0	0	-0.00119303	0	-0.000748646	0	0	0
1.53	216.372	1247.86	7.76901	0.961747	0	-0.289849	0	-7.99185	0	0	0	0	-0.00119303	0	-0.000748646	0	0	0
1.54	222.459	1020.84	11.4558	0.928309	0	-0.290886	0	-6.6817	0	0	0	0	-0.00119303	0	-0.000748646	0	0	0
